<svg width="200" height="200" viewBox="0 0 200 200" fill="none" xmlns="http://www.w3.org/2000/svg">
<path d="M92.736 178.97C96.6582 167.101 84.8917 157.87 73.1252 156.551C67.8957 155.232 56.6522 154.441 53.5145 161.826C49.5923 171.058 53.5144 178.971 62.6661 186.883C71.8178 194.796 88.8139 190.84 92.736 178.97Z" fill="currentColor"/>
<path d="M87.5065 14.1207C72.8638 35.2214 62.2303 102.92 58.744 134.131C58.2866 138.088 92.736 151.276 97.9656 147.319C97.9656 143.363 103.195 119.625 109.732 102.48C114.962 88.7647 136.316 51.047 146.339 33.9026C147.21 32.1442 147.908 27.8362 143.724 24.6711C132.219 18.3408 108.425 12.3623 97.9656 10.1643C96.2224 9.72467 91.6901 9.90051 87.5065 14.1207Z" fill="currentColor"/>
</svg>
