<svg width="673" height="673" viewBox="0 0 673 673" fill="none" xmlns="http://www.w3.org/2000/svg">
<path d="M282.08 108.427C262.548 154.397 207.798 182.216 159.263 170.773C166.267 193.265 160.545 218.913 145.945 237.361C131.345 255.808 108.458 267.054 84.98 269.027C115.462 276.13 138.25 307.796 135.192 338.969C132.233 370.142 103.822 396.876 72.5503 397.961C97.4098 397.961 119.803 414.534 132.627 435.842C145.452 457.15 146.241 485.166 134.699 507.165C168.338 503.121 203.161 526.895 211.546 559.745C231.079 549.387 255.149 548.104 275.668 556.391C296.187 564.677 312.563 582.434 319.37 603.446C317.594 580.165 326.571 554.714 346.794 543.073C367.017 531.433 397.894 539.818 404.503 562.211C399.078 539.226 419.399 515.945 442.681 511.407C465.863 506.869 489.736 516.537 509.367 529.657C506.901 507.856 524.954 487.83 545.67 480.53C566.386 473.23 589.075 475.499 610.975 477.866C601.702 456.953 592.331 435.152 593.12 412.364C593.909 389.576 608.115 365.407 630.508 361.165C611.863 356.824 596.375 341.139 592.232 322.396C588.089 303.751 595.488 282.936 610.482 271.099C593.021 270.803 575.955 260.74 567.175 245.549C558.396 230.357 558.198 210.627 566.682 195.336C545.177 199.381 523.079 202.044 502.56 194.547C482.041 187.05 464.778 166.728 467.343 145.025C448.205 149.761 427.785 140.488 414.072 126.381C400.36 112.274 391.975 93.9253 383.787 75.9712C380.926 91.3604 375.599 106.651 365.636 118.686C355.574 130.721 340.283 139.008 324.697 137.824C309.11 136.542 294.214 124.21 292.833 108.624" fill="#F26722"/>
<path d="M207.995 274.453C189.548 266.758 165.576 278.3 160.052 297.536C154.527 316.773 168.733 339.265 188.463 342.52C168.437 362.447 167.746 398.454 186.983 419.17C206.219 439.788 242.325 441.662 263.534 423.018C287.309 443.241 312.957 463.266 343.44 469.383C373.922 475.597 410.521 463.365 422.162 434.461C440.806 438.407 460.733 437.124 477.898 428.937C495.063 420.749 508.973 405.162 513.214 386.616C517.358 368.07 510.748 346.959 495.359 335.713C507.789 323.777 512.623 304.54 507.197 288.165C501.771 271.789 486.382 259.261 469.316 257.09C471.486 240.912 463.594 223.846 449.882 215.165C436.17 206.385 417.328 206.484 403.616 215.263C388.818 189.911 357.547 176.988 328.149 178.961C298.752 180.934 271.624 195.928 249.625 215.362C239.661 224.142 229.796 237.065 234.334 249.593C220.819 248.607 207.896 260.839 207.995 274.453Z" fill="#ED1C24"/>
<path d="M229.205 196.52C224.963 193.363 219.833 192.081 217.761 186.655C216.775 184.09 212.237 184.189 212.533 187.346C213.223 195.238 219.438 204.807 228.415 202.735C231.572 202.044 231.375 198.098 229.205 196.52Z" fill="#F7921E"/>
<path d="M238.872 184.879C237.096 181.821 232.263 183.893 233.151 187.247C234.038 190.7 236.011 196.027 240.056 196.717C241.832 197.013 243.805 196.027 243.706 193.857C243.706 190.502 240.549 187.839 238.872 184.879Z" fill="#F7921E"/>
<path d="M151.765 270.112C148.904 268.04 144.958 267.843 141.506 267.153C137.757 266.363 133.91 265.673 130.161 264.884C127.103 264.292 125.919 268.534 128.879 269.52C132.529 270.803 136.179 272.085 139.829 273.367C143.183 274.551 146.636 276.426 150.187 276.031C153.344 275.735 154.33 271.986 151.765 270.112Z" fill="#F7921E"/>
<path d="M172.876 264.095C171.199 262.615 169.522 260.839 167.648 259.557C165.675 258.274 163.603 257.09 161.531 255.907C157.98 253.835 155.218 258.965 158.375 261.332L163.406 264.982C165.28 266.363 167.746 267.153 169.818 268.04C172.284 269.126 175.145 266.067 172.876 264.095Z" fill="#F7921E"/>
<path d="M153.837 409.897C151.173 408.812 148.904 409.207 146.241 410.193C143.775 411.18 141.111 412.166 139.631 414.435C138.744 415.915 140.026 417.296 141.407 417.493C143.38 417.789 145.353 416.901 147.227 416.606C149.496 416.211 151.864 416.31 153.837 414.929C155.415 413.843 156.106 410.884 153.837 409.897Z" fill="#F7921E"/>
<path d="M157.881 417C155.317 417.099 152.752 417.197 150.285 417.493C146.34 417.888 147.129 423.511 150.976 422.82C153.541 422.327 156.007 421.834 158.473 421.242C160.742 420.552 160.348 416.902 157.881 417Z" fill="#F7921E"/>
<path d="M215.887 466.719C214.013 471.158 212.04 475.597 210.165 480.037C208.192 484.772 205.529 489.606 206.318 494.735C206.713 497.3 210.067 497.596 211.744 496.116C215.196 493.058 215.986 488.126 217.367 483.983C218.945 479.05 220.228 474.019 221.609 469.087C222.496 465.733 217.268 463.365 215.887 466.719Z" fill="#F7921E"/>
<path d="M231.276 481.516C229.106 485.758 227.232 489.902 225.949 494.439C225.061 497.695 229.402 499.273 231.178 496.61C233.742 492.664 235.617 488.422 237.491 484.081C238.872 480.629 232.953 478.162 231.276 481.516Z" fill="#F7921E"/>
<path d="M341.072 506.277C340.579 505.291 338.902 505.093 338.211 505.883C336.14 508.25 335.844 511.703 335.449 514.761C334.956 518.312 334.364 521.667 335.943 525.021C336.83 526.796 339.691 526.698 340.579 525.021C342.059 522.16 341.861 519.2 341.861 516.043C341.861 512.788 342.453 509.237 341.072 506.277Z" fill="#F7921E"/>
<path d="M359.421 499.766C357.744 505.192 355.771 510.421 355.278 516.044C354.982 519.299 360.013 520.581 361.493 517.721C364.057 512.69 365.143 507.165 366.524 501.739C367.707 497.103 360.802 495.229 359.421 499.766Z" fill="#F7921E"/>
<path d="M499.009 474.019C494.866 469.58 490.229 466.719 488.454 460.504C487.27 456.657 481.746 458.235 482.535 462.181C484.014 468.988 488.848 477.57 496.346 478.754C499.009 479.149 501.081 476.288 499.009 474.019Z" fill="#F7921E"/>
<path d="M516.569 464.943C515.286 461.392 512.721 458.827 510.354 455.966C508.085 453.204 503.547 456.854 505.421 459.715C507.296 462.576 508.973 465.634 511.636 467.706C513.708 469.383 517.654 468.002 516.569 464.943Z" fill="#F7921E"/>
<path d="M560.369 389.28C556.916 387.011 552.97 386.715 548.925 386.024C544.683 385.334 540.54 384.742 536.298 384.051C532.254 383.46 530.577 388.984 534.621 390.266C538.666 391.549 542.71 392.831 546.755 394.114C550.602 395.297 554.351 396.876 558.494 396.383C562.144 395.988 563.723 391.45 560.369 389.28Z" fill="#F7921E"/>
<path d="M552.279 361.757C549.715 360.277 547.15 359.882 544.19 359.488C540.047 358.995 539.455 365.505 543.204 366.591C546.065 367.38 548.531 367.774 551.49 367.38C554.351 366.985 554.351 362.941 552.279 361.757Z" fill="#F7921E"/>
<path d="M536.2 249.79C529.492 248.015 521.205 253.144 515.779 256.696C513.708 257.978 514.99 261.727 517.555 260.839C520.811 259.557 524.066 258.669 527.42 257.978C530.675 257.288 534.128 257.189 536.89 255.413C539.159 254.032 538.863 250.481 536.2 249.79Z" fill="#F7921E"/>
<path d="M538.074 263.799C535.41 264.588 533.24 265.772 530.774 267.054C527.617 268.731 530.379 273.17 533.536 271.69C535.805 270.605 537.877 269.619 539.948 268.139C542.02 266.659 540.836 262.911 538.074 263.799Z" fill="#F7921E"/>
<path d="M456.985 172.351C452.151 178.369 446.429 185.175 445.443 193.067C445.147 195.632 448.895 197.013 450.474 195.139C455.308 189.615 457.675 182.019 461.522 175.804C463.199 173.14 459.056 169.786 456.985 172.351Z" fill="#F7921E"/>
<path d="M458.958 191.785C455.9 195.435 452.052 198.098 447.514 199.578C444.752 200.466 445.936 204.313 448.698 203.82C454.321 202.735 459.254 200.071 463.397 196.224C466.356 193.462 461.523 188.727 458.958 191.785Z" fill="#F7921E"/>
<path d="M357.053 149.662C355.968 155.285 353.798 161.697 354.784 167.419C355.179 169.589 358.632 169.984 359.52 168.011C361.986 162.782 361.591 155.975 361.986 150.352C362.38 147.492 357.645 146.9 357.053 149.662Z" fill="#F7921E"/>
<path d="M369.878 160.513C368.99 163.769 368.102 166.728 368.003 170.082C367.905 172.647 371.949 173.929 373.035 171.463C374.416 168.405 375.007 165.446 375.599 162.092C376.29 158.343 370.963 156.765 369.878 160.513Z" fill="#F7921E"/>
<path d="M245.087 79.3252C238.971 79.5225 232.855 82.2847 229.303 87.2171C225.752 92.1496 225.653 99.5483 229.599 104.185C232.756 107.933 237.886 109.314 242.818 109.413C247.948 109.512 253.176 108.328 257.221 105.171C261.265 102.014 263.929 96.8847 263.14 91.755C261.956 83.9617 253.078 79.0293 245.087 79.3252Z" fill="#F7921E"/>
<path d="M31.7096 346.17C25.4947 350.116 20.661 356.627 19.5758 363.927C18.4907 371.227 21.4502 379.218 27.665 383.361C35.9515 388.885 47.9867 386.024 54.9908 378.922C60.1205 373.693 63.1786 366.295 62.2907 359.093C61.4029 351.892 56.2732 345.085 49.2691 343.014C43.3502 341.238 36.938 342.915 31.7096 346.17Z" fill="#F7921E"/>
<path d="M91.8854 333.839C95.0422 326.342 88.2354 316.773 80.1462 317.266C73.4381 317.661 68.0124 324.665 69.1962 331.274C70.38 337.884 77.9759 342.52 84.2894 340.547C87.6435 339.561 90.5043 336.996 91.8854 333.839Z" fill="#F7921E"/>
<path d="M95.7327 488.817C95.8314 485.956 95.0422 482.996 93.4638 480.629C89.8138 475.104 81.9218 472.737 75.9043 475.499C69.8867 478.261 66.3353 485.66 68.2097 492.072C69.9853 498.484 76.7921 503.022 83.4016 502.233C90.0111 501.444 95.5354 495.426 95.7327 488.817Z" fill="#F7921E"/>
<path d="M410.521 611.338C415.947 609.464 419.695 603.94 420.189 598.218C420.583 592.496 417.92 586.676 413.678 582.829C410.817 580.264 407.167 578.39 403.32 578.685C398.486 579.08 394.54 582.829 392.468 587.169C389.706 592.99 389.903 600.191 393.553 605.518C397.203 610.845 404.504 613.509 410.521 611.338Z" fill="#F7921E"/>
<path d="M631.199 483.489C628.535 481.911 624.984 482.898 622.813 485.166C620.643 487.337 619.657 490.395 618.966 493.453C617.585 498.977 616.894 505.192 619.953 509.927C624.392 516.734 635.44 516.833 641.063 511.012C646.686 505.192 646.884 495.426 642.839 488.422C638.795 481.221 638.104 487.731 631.199 483.489Z" fill="#F7921E"/>
<path d="M635.736 453.402C636.032 447.483 630.409 441.958 624.49 442.353C617.486 442.747 612.554 451.527 615.711 457.742C617.782 461.885 622.813 464.253 627.351 463.266C631.889 462.28 635.539 458.038 635.736 453.402Z" fill="#F7921E"/>
<path d="M498.417 130.228C497.135 141.277 507.197 152.227 518.246 151.733C528.012 151.339 536.594 142.46 536.693 132.793C536.792 123.027 528.406 113.951 518.739 113.359C509.071 112.669 499.601 120.56 498.417 130.228Z" fill="#F7921E"/>
<path d="M556.324 158.935C560.665 163.078 568.951 161.5 571.417 155.975C574.278 149.662 567.767 141.573 561.059 142.855C554.351 144.236 551.392 154.2 556.324 158.935Z" fill="#F7921E"/>
<path d="M428.475 235.19C425.318 235.486 425.121 240.419 428.475 240.32C434.887 240.221 440.905 245.351 442.681 251.467C443.371 253.736 446.922 253.342 446.922 250.876C446.725 241.109 438.044 234.105 428.475 235.19Z" fill="#F26722"/>
<path d="M476.616 360.77C474.939 357.811 470.697 360.376 472.078 363.434C477.701 374.976 471.091 384.545 460.832 389.773C460.635 386.616 459.944 383.46 458.662 380.599C457.577 378.034 453.335 379.908 454.222 382.473C456.491 389.872 453.828 395.791 450.079 402.104C448.205 405.162 452.249 407.727 454.716 405.656C458.267 402.795 460.141 398.651 460.733 394.311C461.325 394.706 462.114 395.001 463.002 394.903C478.589 392.239 483.62 373.397 476.616 360.77Z" fill="#F26722"/>
<path d="M369.286 446.397C360.309 444.918 352.318 444.326 346.498 436.237C344.821 433.869 341.171 435.941 342.552 438.604C347.189 447.581 358.829 456.262 369.286 452.711C372.048 451.725 372.739 446.989 369.286 446.397Z" fill="#F26722"/>
<path d="M249.428 258.373C243.903 245.055 223.088 243.28 211.546 249.1C199.807 255.019 190.83 272.874 204.246 282.049C206.318 283.43 209.573 281.062 208.587 278.694C199.413 254.821 230.388 248.409 245.482 260.642C247.06 261.924 250.414 260.839 249.428 258.373Z" fill="#790000"/>
<path d="M204.937 265.772C176.723 256.893 158.276 286.389 157.881 310.953C157.487 334.332 179.781 355.443 202.668 345.48C206.614 343.704 203.556 338.476 199.906 339.068C154.527 345.874 158.572 268.928 204.246 270.901C207.305 271.099 207.6 266.659 204.937 265.772Z" fill="#790000"/>
<path d="M180.867 338.18C152.16 355.641 164.392 419.072 189.35 435.645C224.667 459.123 267.776 437.815 284.645 402.104C286.52 398.158 281.39 393.324 278.233 397.172C260.18 419.269 240.451 439.985 209.179 433.672C173.567 426.47 166.365 366.393 184.418 341.731C185.898 339.561 182.938 336.897 180.867 338.18Z" fill="#790000"/>
<path d="M266.888 417.395C287.506 454.092 315.424 482.01 359.125 485.364C396.612 488.225 432.322 459.518 437.255 422.82C437.945 417.296 429.758 416.901 428.081 421.538C416.341 455.473 388.424 474.907 352.417 473.23C314.832 471.356 292.241 440.873 270.637 414.435C268.861 412.166 265.507 415.027 266.888 417.395Z" fill="#790000"/>
<path d="M420.978 445.214C451.066 452.908 485.198 443.043 505.027 418.776C524.658 394.705 512.721 362.151 495.951 340.745C493.682 337.785 489.046 341.534 490.92 344.691C505.125 369.057 512.228 397.172 490.723 419.861C473.163 438.308 445.541 442.254 421.57 440.676C419.005 440.479 418.512 444.622 420.978 445.214Z" fill="#790000"/>
<path d="M481.746 348.439C530.083 331.274 520.219 253.736 467.343 253.638C463.791 253.638 463.2 258.669 466.554 259.655C508.973 272.085 519.923 320.324 480.463 345.184C478.687 346.269 479.773 349.13 481.746 348.439Z" fill="#790000"/>
<path d="M465.962 267.153C475.629 244.167 467.343 218.617 446.133 205.892C424.233 192.673 399.472 209.542 384.478 225.325C382.209 227.693 385.168 231.935 388.029 229.962C403.517 219.505 418.709 206.286 438.636 212.402C462.114 219.702 464.285 246.338 462.114 266.561C461.917 269.027 465.172 269.027 465.962 267.153Z" fill="#790000"/>
<path d="M402.728 212.501C370.766 158.244 274.386 147.788 268.368 225.227C268.072 229.37 274.09 229.765 275.274 226.213C285.73 193.758 302.698 174.62 339.691 180.638C363.367 184.485 381.716 199.578 397.697 216.447C400.262 219.012 404.602 215.559 402.728 212.501Z" fill="#790000"/>
<path d="M237.886 253.539C237.491 240.616 238.379 228.778 246.665 218.321C254.261 208.555 264.324 207.273 274.583 202.143C276.852 200.959 276.359 197.112 273.892 196.619C261.759 194.054 246.961 203.524 240.155 213.29C231.769 225.326 228.218 240.813 234.729 254.427C235.518 255.907 237.984 255.216 237.886 253.539Z" fill="#790000"/>
<path d="M282.574 100.633C296.088 125.296 311.576 149.958 342.947 140.192C375.994 129.932 384.675 85.5401 386.747 56.3401C387.043 52.2955 380.828 51.6049 379.841 55.3536C372.837 81.9888 368.299 112.077 344.032 128.946C316.903 147.886 299.442 115.825 285.237 98.5618C283.955 96.9834 281.686 98.9564 282.574 100.633Z" fill="#790000"/>
<path d="M378.559 56.2414C378.263 84.3563 391.087 112.373 409.535 132.99C428.968 154.792 452.545 155.581 475.333 138.219C478.589 135.752 475.925 130.82 472.078 132.694C460.043 138.514 449.685 145.519 435.381 142.46C422.655 139.797 411.409 125.197 404.109 115.431C390.495 97.1806 389.509 76.0698 381.42 55.8468C380.729 54.4657 378.559 54.5644 378.559 56.2414Z" fill="#790000"/>
<path d="M470.697 132.99C451.658 193.067 538.173 216.546 577.632 185.965C580.789 183.498 576.744 179.059 573.588 180.638C534.029 200.367 468.329 190.601 475.235 133.582C475.531 130.919 471.486 130.623 470.697 132.99Z" fill="#790000"/>
<path d="M568.261 185.077C547.248 197.901 548.333 227.693 556.916 247.719C569.444 276.722 605.846 273.466 629.127 261.135C632.58 259.261 630.113 254.328 626.562 255.019C604.761 259.754 581.775 269.717 565.992 247.028C554.252 230.159 556.62 202.932 571.516 189.22C573.785 187.247 570.825 183.498 568.261 185.077Z" fill="#790000"/>
<path d="M623.997 258.471C600.025 268.928 574.87 292.9 576.547 321.015C578.125 349.228 613.343 361.658 636.526 362.842C640.965 363.039 641.655 356.528 637.512 355.345C615.415 348.834 587.102 344.296 585.031 315.589C583.452 293.689 611.271 273.663 627.055 263.799C630.409 261.628 627.45 256.992 623.997 258.471Z" fill="#790000"/>
<path d="M635.342 355.542C612.061 357.614 590.654 373.989 581.973 395.791C569.148 427.852 582.959 460.899 602.689 486.942C605.747 490.888 611.469 487.633 609.397 482.996C598.94 459.32 584.34 436.829 589.075 409.799C593.416 385.235 614.132 369.649 636.229 361.954C639.485 360.77 639.189 355.147 635.342 355.542Z" fill="#790000"/>
<path d="M607.819 481.911C587.892 467.607 554.548 463.168 531.76 473.723C506.802 485.364 502.067 516.734 511.34 540.607C513.116 545.145 519.133 543.369 518.443 538.634C514.99 513.577 516.47 487.041 545.473 480.234C565.597 475.499 586.116 478.656 604.563 487.139C608.312 488.816 611.074 484.18 607.819 481.911Z" fill="#790000"/>
<path d="M517.358 538.93C507.789 509.829 474.544 497.103 445.64 501.148C408.548 506.376 398.289 544.652 407.956 576.713C409.14 580.658 415.848 580.067 415.355 575.726C412.691 550.077 412.1 519.595 442.187 510.815C469.02 503.022 500.292 516.931 513.215 540.706C514.497 542.876 518.147 541.298 517.358 538.93Z" fill="#790000"/>
<path d="M411.705 571.386C412.001 571.386 412.001 570.991 411.705 570.991C411.409 570.991 411.409 571.386 411.705 571.386Z" fill="#790000"/>
<path d="M412.593 573.654C416.539 547.414 382.505 519.99 357.152 525.021C314.437 533.504 319.468 585.394 319.961 618.046C320.06 621.302 325.288 622.288 325.88 618.836C330.122 594.075 323.907 565.664 340.48 544.454C361.986 516.931 406.181 546.723 410.028 573.556C410.225 574.937 412.395 574.937 412.593 573.654Z" fill="#790000"/>
<path d="M326.67 618.046C324.499 563.79 254.261 502.134 208.291 555.404C206.022 558.068 209.08 563 212.336 560.633C264.817 522.554 308.814 567.341 323.217 618.441C323.809 620.414 326.768 620.118 326.67 618.046Z" fill="#790000"/>
<path d="M210.955 557.476C225.456 539.325 208.488 516.241 195.96 502.035C176.723 480.135 142.887 483.983 118.323 492.664C113.687 494.242 115.66 500.358 120.296 499.766C142.098 496.807 162.419 490.987 182.938 502.134C200.892 511.9 213.815 537.154 209.179 556.49C208.982 557.377 210.264 558.364 210.955 557.476Z" fill="#790000"/>
<path d="M121.48 498.78C134.502 480.53 144.958 447.187 134.502 425.385C122.171 399.835 94.6476 391.845 68.0124 391.253C64.3624 391.154 63.5732 396.777 67.1246 397.665C91.6881 403.781 120.198 406.247 128.879 434.56C135.094 455.079 125.722 478.656 118.323 497.399C117.534 499.372 120.494 500.26 121.48 498.78Z" fill="#790000"/>
<path d="M67.3219 396.087C102.244 387.603 133.121 361.658 136.08 324.468C138.349 296.55 107.571 259.359 79.8503 257.386C75.6084 257.09 74.9178 263.601 78.8638 264.686C106.387 272.085 129.372 307.895 124.44 335.418C119.014 365.703 89.0246 378.724 66.1381 393.423C64.8557 394.41 65.7435 396.481 67.3219 396.087Z" fill="#790000"/>
<path d="M79.9489 261.53C141.21 268.435 201.879 216.743 164.096 155.679C161.827 152.029 155.317 154.397 156.994 158.639C167.845 185.866 171.1 212.008 148.411 234.204C130.062 252.059 103.033 253.342 79.5543 258.669C77.8773 259.063 78.3705 261.332 79.9489 261.53Z" fill="#790000"/>
<path d="M159.164 154.792C204.148 199.479 280.206 151.635 285.138 96.3915C285.434 92.7415 279.713 92.1496 278.924 95.5037C273.498 117.502 256.629 141.77 238.379 154.89C217.959 169.589 180.965 165.248 161.926 151.142C159.756 149.662 157.29 153.016 159.164 154.792Z" fill="#790000"/>
<path d="M191.817 202.242C196.552 211.613 202.668 221.577 211.053 228.088C213.026 229.666 214.802 226.509 213.519 224.832C207.206 216.644 200.103 209.443 194.579 200.565C193.494 198.789 190.83 200.367 191.817 202.242Z" fill="#790000"/>
<path d="M194.579 230.258C198.327 232.132 202.076 234.204 206.022 235.585C207.896 236.276 208.784 233.513 207.304 232.527C203.95 230.258 200.202 228.581 196.552 226.805C194.382 225.72 192.31 229.074 194.579 230.258Z" fill="#790000"/>
<path d="M145.649 353.076C147.918 353.174 149.99 352.287 152.16 353.47C153.837 354.358 155.908 352.484 154.823 350.807C153.541 348.834 151.864 347.65 149.496 347.453C147.425 347.255 144.761 348.045 143.873 350.116C143.281 351.497 143.972 352.977 145.649 353.076Z" fill="#790000"/>
<path d="M151.075 461.096C156.204 455.572 162.321 451.823 168.338 447.384C170.015 446.102 169.127 442.846 166.76 443.734C159.263 446.496 153.146 452.81 148.411 459.025C147.227 460.603 149.792 462.477 151.075 461.096Z" fill="#790000"/>
<path d="M170.804 460.11C173.369 457.939 175.934 455.868 178.203 453.401C179.486 452.02 177.809 449.554 176.132 450.639C173.172 452.612 170.607 454.98 167.944 457.249C165.971 459.024 168.831 461.787 170.804 460.11Z" fill="#790000"/>
<path d="M269.453 463.858C266.395 480.431 261.364 496.314 257.615 512.69C257.024 515.452 260.772 516.34 261.759 513.873C267.875 498.287 270.538 481.221 272.906 464.845C273.301 462.576 269.947 461.491 269.453 463.858Z" fill="#790000"/>
<path d="M283.659 487.534C282.87 491.579 281.39 495.821 279.121 499.372C277.937 501.246 280.601 503.121 282.08 501.641C286.125 497.892 288.197 493.65 288.887 488.225C289.38 485.265 284.251 484.575 283.659 487.534Z" fill="#790000"/>
<path d="M432.125 462.477C432.816 466.127 433.901 469.876 435.972 473.033C437.255 474.907 440.116 473.723 439.623 471.454C438.833 467.804 436.959 464.352 434.887 461.293C433.901 459.912 431.829 460.8 432.125 462.477Z" fill="#790000"/>
<path d="M513.116 431.304C517.062 433.869 520.81 436.631 524.46 439.689C527.913 442.649 530.873 446.595 534.819 448.765C536.792 449.85 538.666 447.68 537.778 445.806C535.805 441.662 531.662 438.703 528.209 435.941C524.164 432.784 519.923 429.923 515.483 427.358C512.918 425.977 510.748 429.726 513.116 431.304Z" fill="#790000"/>
<path d="M524.165 422.426C527.617 424.004 530.873 425.879 534.523 426.865C536.594 427.457 537.778 424.497 536.002 423.412C532.846 421.439 529.294 420.157 525.743 418.677C523.573 417.789 522.093 421.439 524.165 422.426Z" fill="#790000"/>
<path d="M521.896 337.292C527.223 336.897 532.451 336.503 537.778 336.108C542.513 335.714 547.643 335.911 552.181 334.135C555.239 332.951 554.647 328.808 551.392 328.512C546.558 328.019 541.724 329.499 536.989 330.386C531.76 331.373 526.532 332.359 521.304 333.445C519.232 333.839 519.725 337.489 521.896 337.292Z" fill="#790000"/>
<path d="M530.182 324.665C531.76 324.172 533.339 323.678 534.819 322.988C536.298 322.297 535.608 319.732 533.931 319.831C532.254 319.93 530.675 320.226 528.998 320.522C526.335 321.113 527.519 325.454 530.182 324.665Z" fill="#790000"/>
<path d="M487.369 240.912C490.525 237.558 494.077 233.612 495.556 229.074C496.148 227.2 493.485 225.621 492.202 227.101C489.342 230.455 487.27 234.401 484.31 237.854C482.535 239.926 485.494 242.984 487.369 240.912Z" fill="#790000"/>
<path d="M498.121 243.97C505.816 237.854 513.708 232.034 520.416 224.931C521.896 223.353 519.923 220.59 518.048 221.873C509.86 227.594 502.758 234.5 495.458 241.307C493.583 242.984 496.247 245.45 498.121 243.97Z" fill="#790000"/>
<path d="M400.755 147.689C402.136 158.738 402.432 170.279 404.602 181.131C405.194 183.893 409.041 183.005 409.239 180.539C410.126 169.49 407.167 157.652 403.813 147.294C403.32 145.716 400.558 145.913 400.755 147.689Z" fill="#790000"/>
<path d="M419.695 173.14C416.933 176.396 415.355 180.046 416.045 184.288C416.44 186.557 419.893 186.359 420.386 184.288C420.978 181.723 421.668 178.961 423.444 176.889C425.614 174.324 421.964 170.575 419.695 173.14Z" fill="#790000"/>
<path d="M291.057 154.792C292.833 159.724 294.313 164.755 296.779 169.392C297.765 171.167 300.429 169.885 299.936 168.011C298.752 163.078 296.483 158.442 294.609 153.805C293.819 151.635 290.268 152.523 291.057 154.792Z" fill="#790000"/>
<path d="M309.801 161.5C309.307 163.571 308.617 165.742 307.63 167.616C306.841 169.293 308.913 171.167 310.294 169.688C312.464 167.419 313.352 165.051 312.957 161.993C312.859 160.217 310.195 159.625 309.801 161.5Z" fill="#790000"/>
<path d="M63.4746 344.691C42.7583 328.907 11.4867 348.439 22.9299 374.088C27.4678 384.15 40.588 388.195 50.4529 385.038C60.5151 381.783 71.3665 369.451 68.9002 358.6C68.2097 355.443 63.5732 356.331 63.4746 359.291C63.2773 366.393 55.3854 373.595 49.861 377.245C42.4624 381.98 33.1894 377.146 29.1448 370.537C24.2123 362.546 29.4407 351.991 36.1488 347.157C43.5475 341.83 54.3989 343.704 61.6989 347.946C63.6719 349.228 65.3489 346.072 63.4746 344.691Z" fill="#790000"/>
<path d="M87.0516 320.62C84.6841 310.459 70.4786 312.827 67.2232 321.113C63.2772 331.274 72.6489 342.224 83.2043 340.35C86.0651 339.857 85.7692 335.516 83.2043 334.826C77.8773 333.346 72.5503 331.472 72.7476 324.862C72.9449 318.253 80.7381 318.253 84.1908 322.199C85.3746 323.678 87.3476 322.199 87.0516 320.62Z" fill="#790000"/>
<path d="M90.8003 474.019C75.2138 468.495 61.6002 482.996 68.0124 498.09C70.8732 504.896 78.0746 507.56 84.8814 506.573C91.3922 505.685 98.7908 498.78 97.1138 491.875C96.5219 489.606 93.2665 489.211 92.1814 491.184C90.0111 495.031 89.0246 498.188 84.4868 499.865C79.8503 501.542 75.707 498.879 73.4381 494.933C67.1246 484.18 80.2449 475.203 89.9124 477.472C92.0827 478.064 92.8719 474.808 90.8003 474.019Z" fill="#790000"/>
<path d="M630.508 488.915C631.889 480.333 641.162 484.18 644.417 488.915C647.476 493.552 649.744 501.345 647.475 506.573C643.431 515.846 620.742 511.506 621.235 501.345C621.432 497.596 616.105 497.202 615.02 500.457C608.312 520.976 650.632 526.402 654.973 505.291C656.946 495.821 650.731 482.602 642.05 478.458C635.144 475.203 625.477 480.135 626.167 488.225C626.463 490.592 630.113 491.48 630.508 488.915Z" fill="#790000"/>
<path d="M624.688 444.425C625.871 441.958 628.93 441.86 631.198 442.846C633.961 444.129 634.75 447.877 634.355 450.639C633.171 458.038 624.786 458.235 619.361 455.572C616.894 454.388 614.428 457.348 616.401 459.419C620.347 463.562 626.365 464.352 631.593 462.181C637.019 459.912 640.077 454.585 639.88 448.765C639.682 443.734 636.525 439.295 631.79 437.815C627.548 436.533 622.517 438.604 621.432 443.043C620.939 444.918 623.8 446.299 624.688 444.425Z" fill="#790000"/>
<path d="M513.215 146.406C511.932 140.488 509.367 134.865 507.394 129.044C503.843 118.587 522.389 116.812 527.913 118.292C534.917 120.067 539.356 127.959 538.271 134.865C537.186 142.165 529.196 144.729 522.981 145.124C520.416 145.321 518.936 148.971 521.6 150.254C530.379 154.693 539.356 149.267 544.092 141.474C549.517 132.596 544.881 119.574 536.693 114.148C527.716 108.131 515.385 108.525 506.704 115.233C495.063 124.309 502.955 137.824 509.762 147.886C510.946 149.662 513.609 148.478 513.215 146.406Z" fill="#790000"/>
<path d="M556.028 150.747C557.212 145.124 564.117 143.052 566.978 148.379C569.839 153.706 562.933 156.666 558.692 155.778C555.436 155.088 553.463 159.329 556.423 161.204C565.992 167.221 577.336 155.877 572.601 146.012C570.529 141.671 565.893 138.416 560.862 139.501C555.732 140.586 551.786 144.828 551.983 150.155C552.082 152.424 555.535 153.016 556.028 150.747Z" fill="#790000"/>
<path d="M248.638 104.086C240.648 101.423 225.16 88.0063 239.957 82.9752C245.284 81.1995 251.006 83.6657 254.163 87.9076C256.629 91.2617 256.53 95.4049 257.024 99.3509C257.32 101.521 260.674 101.817 261.561 99.9428C264.817 93.136 261.364 85.1455 256.234 80.213C250.217 74.3928 241.042 74.4914 233.841 77.5495C225.752 81.0022 225.061 89.486 228.81 96.4901C232.46 103.396 240.451 107.835 248.046 108.229C250.513 108.328 250.809 104.777 248.638 104.086Z" fill="#790000"/>
<path d="M403.024 582.138C395.033 581.448 389.903 590.03 389.114 597.034C388.029 606.603 392.666 614.988 401.939 617.948C417.13 622.88 435.677 594.075 418.018 587.169C414.862 585.887 413.579 590.523 415.848 592.2C420.682 595.752 417.426 601.473 414.96 605.123C411.804 609.957 406.871 613.213 401.149 610.549C390.101 605.419 395.526 589.438 403.912 585.196C405.49 584.407 404.602 582.237 403.024 582.138Z" fill="#790000"/>
</svg>
