<svg width="200" height="200" viewBox="0 0 200 200" fill="none" xmlns="http://www.w3.org/2000/svg">
<path fill-rule="evenodd" clip-rule="evenodd" d="M57 26C57 21.5817 60.5817 18 65 18H168C172.418 18 176 21.5817 176 26V170C176 174.418 172.418 178 168 178H65C60.5817 178 57 174.418 57 170V137.5L73 142V162H160V34H73L72.5 85.5L57 84V26Z" fill="currentColor"/>
<path d="M34.5 86C34 82 41 75.5 58 68.5V57.5C53 58 15 74.5 13 93C11 111.5 49 124.5 104 135.5V152L154 114L104 80.5V99.5C39 100 35 90 34.5 86Z" fill="currentColor"/>
</svg>
