<svg width="200" height="200" viewBox="0 0 200 200" fill="none" xmlns="http://www.w3.org/2000/svg">
<path d="M78.5 36.2985H49V66.2985H19V96.7985H49V124.298H78.5V96.7985H106.5V66.2985H78.5V36.2985Z" fill="currentColor"/>
<path fill-rule="evenodd" clip-rule="evenodd" d="M97 14.2985L169 35.2985C179 38.7985 182.5 50.7985 181.5 55.2985C180.7 58.8985 157.5 136.799 146 175.299C144.5 180.799 133 187.799 126 185.299C120.4 183.299 74.3333 170.132 52 163.799C46.5 161.799 39.5 149.299 41 143.799L43.0475 136.974C44.8539 137.823 46.8715 138.298 49 138.298H78.5C86.232 138.298 92.5 132.03 92.5 124.298V110.798H106.5C114.232 110.798 120.5 104.53 120.5 96.7985V66.2985C120.5 58.5665 114.232 52.2985 106.5 52.2985H92.5V36.2985C92.5 28.5665 86.232 22.2985 78.5 22.2985H77.6161C80.6459 16.9829 91.9653 12.83 97 14.2985ZM49 117.132L73.25 36.2985H78.5V66.2985H106.5V96.7985H78.5V124.298H49V117.132Z" fill="currentColor"/>
</svg>
