<svg width="200" height="200" viewBox="0 0 200 200" fill="none" xmlns="http://www.w3.org/2000/svg">
<path d="M43.518 158.555L44.0039 156.911L42.4533 156.179C28.2016 149.456 18.6296 139.921 12.5965 128.558C6.5481 117.165 4 103.824 4 89.4419C4 67.9296 10.7494 48.6612 26.0619 34.7482C41.398 20.8138 65.5999 12 101 12C135.324 12 159.541 20.8064 175.155 34.7593C190.746 48.6918 198 67.9699 198 89.4419C198 110.875 190.242 130.161 174.371 144.114C158.48 158.085 134.248 166.884 101 166.884C87.1299 166.884 75.0764 165.679 64.6455 163.455L63.9606 163.309L63.3343 163.623C54.71 167.934 42.2661 176.821 32.8447 184.002C38.148 174.37 41.964 163.813 43.518 158.555Z" fill="white" stroke="black" stroke-width="4"/>
<path d="M68.8943 45.9827C57.5892 40.894 42.5156 43.8624 36.392 45.9827C32.8591 55.1705 33.5657 104.644 36.392 107.471C39.2183 110.298 56.8826 111.711 56.8826 109.591C56.176 106.057 57.5892 94.0423 60.4155 80.6139C63.2418 67.1855 71.7206 48.1029 68.8943 45.9827Z" fill="#E9353C"/>
<path d="M56.8826 123.726C55.1868 117.507 49.5814 116.894 46.9906 117.365C43.973 117.365 36.392 117.365 36.392 123.726C36.392 130.087 46.9906 132.914 49.1103 132.914C51.23 132.914 59.0023 131.501 56.8826 123.726Z" fill="#E9353C"/>
<path d="M95.0376 126.553C97.1573 120.192 90.7981 115.245 84.439 114.538C81.6127 113.832 75.5361 113.408 73.8404 117.365C71.7207 122.313 73.8404 126.553 78.7864 130.794C83.7324 135.034 92.9178 132.914 95.0376 126.553Z" fill="#E9353C"/>
<path d="M127.54 117.365C123.3 115.245 119.768 114.538 114.115 119.486C111.295 121.606 109.876 126.553 112.702 129.38C115.528 132.207 122.594 135.034 130.366 130.794C138.138 126.553 131.779 119.486 127.54 117.365Z" fill="#E9353C"/>
<path d="M92.2113 38.2083C84.2976 49.5165 78.5509 85.7968 76.6667 102.523C76.4195 104.644 95.0376 111.711 97.8638 109.591C97.8638 107.471 100.69 94.7491 104.223 85.5612C107.049 78.2109 118.59 57.9976 124.007 48.8097C124.478 47.8674 124.855 45.5586 122.594 43.8624C116.376 40.4699 103.516 37.266 97.8638 36.088C96.9217 35.8524 94.4723 35.9467 92.2113 38.2083Z" fill="#E9353C"/>
<path d="M149.444 45.9827C142.095 47.6789 126.127 84.3833 119.061 102.523C118.228 104.644 137.432 114.538 137.432 111.711C144.498 92.6288 177 65.7719 177 61.5314C177 57.2908 154.39 43.8624 149.444 45.9827Z" fill="#E9353C"/>
<path d="M68.8943 45.9827C57.5892 40.894 42.5156 43.8624 36.392 45.9827C32.8591 55.1705 33.5657 104.644 36.392 107.471C39.2183 110.298 56.8826 111.711 56.8826 109.591C56.176 106.057 57.5892 94.0423 60.4155 80.6139C63.2418 67.1855 71.7206 48.1029 68.8943 45.9827Z" stroke="black" stroke-width="4"/>
<path d="M56.8826 123.726C55.1868 117.507 49.5814 116.894 46.9906 117.365C43.973 117.365 36.392 117.365 36.392 123.726C36.392 130.087 46.9906 132.914 49.1103 132.914C51.23 132.914 59.0023 131.501 56.8826 123.726Z" stroke="black" stroke-width="4"/>
<path d="M95.0376 126.553C97.1573 120.192 90.7981 115.245 84.439 114.538C81.6127 113.832 75.5361 113.408 73.8404 117.365C71.7207 122.313 73.8404 126.553 78.7864 130.794C83.7324 135.034 92.9178 132.914 95.0376 126.553Z" stroke="black" stroke-width="4"/>
<path d="M127.54 117.365C123.3 115.245 119.768 114.538 114.115 119.486C111.295 121.606 109.876 126.553 112.702 129.38C115.528 132.207 122.594 135.034 130.366 130.794C138.138 126.553 131.779 119.486 127.54 117.365Z" stroke="black" stroke-width="4"/>
<path d="M92.2113 38.2083C84.2976 49.5165 78.5509 85.7968 76.6667 102.523C76.4195 104.644 95.0376 111.711 97.8638 109.591C97.8638 107.471 100.69 94.7491 104.223 85.5612C107.049 78.2109 118.59 57.9976 124.007 48.8097C124.478 47.8674 124.855 45.5586 122.594 43.8624C116.376 40.4699 103.516 37.266 97.8638 36.088C96.9217 35.8524 94.4723 35.9467 92.2113 38.2083Z" stroke="black" stroke-width="4"/>
<path d="M149.444 45.9827C142.095 47.6789 126.127 84.3833 119.061 102.523C118.228 104.644 137.432 114.538 137.432 111.711C144.498 92.6288 177 65.7719 177 61.5314C177 57.2908 154.39 43.8624 149.444 45.9827Z" stroke="black" stroke-width="4"/>
</svg>
